<?xml version="1.0" encoding="UTF-8" standalone="no"?> <svg xmlns="http://www.w3.org/2000/svg" xmlns:xlink="http://www.w3.org/1999/xlink" xmlns:serif="http://www.serif.com/" width="100%" height="100%" viewBox="0 0 300 62" version="1.1" xml:space="preserve" style="fill-rule:evenodd;clip-rule:evenodd;stroke-linejoin:round;stroke-miterlimit:2;"> <g transform="matrix(1,0,0,1,-27.5,-366.5)"> <g transform="matrix(2.7933,0,0,1.6129,1631.28,248)"> <g id="doubloin-logo-light" transform="matrix(0.169643,0,0,0.233936,-921.21,47.3257)"> <g id="doubloin_text"> <g id="doubloin_n" transform="matrix(0.622145,0,0,0.775834,1959.59,-878.123)"> <path d="M997.642,1461.43C995.331,1461.92 993.678,1463.96 993.678,1466.32C993.678,1470.06 993.678,1475.61 993.678,1479.62C993.678,1480.95 994.205,1482.22 995.143,1483.16C996.081,1484.09 997.352,1484.62 998.678,1484.62L1060.8,1484.62C1062.12,1484.62 1063.4,1484.09 1064.34,1483.16C1065.27,1482.22 1065.8,1480.95 1065.8,1479.62C1065.8,1475.67 1065.8,1470.23 1065.8,1466.59C1065.8,1464.3 1064.23,1462.29 1062.01,1461.74C1059.26,1461.06 1055.55,1460.13 1052.8,1459.45C1050.58,1458.9 1049.01,1456.89 1049.01,1454.6C1049.02,1440.09 1049.05,1389.73 1049.05,1381.09C1049.05,1380.21 1049.28,1379.34 1049.72,1378.58C1051.9,1375.09 1059.4,1365.28 1075.58,1365.21C1099.88,1365.11 1100.05,1387.06 1100.05,1387.06L1100.05,1454.38C1100.05,1456.69 1098.47,1458.69 1096.23,1459.24C1093.31,1459.96 1089.29,1460.94 1086.36,1461.66C1084.13,1462.21 1082.55,1464.21 1082.55,1466.52C1082.55,1470.17 1082.55,1475.65 1082.55,1479.62C1082.55,1482.38 1084.79,1484.62 1087.55,1484.62C1100.98,1484.62 1137.74,1484.62 1151.17,1484.62C1152.49,1484.62 1153.77,1484.09 1154.7,1483.16C1155.64,1482.22 1156.17,1480.95 1156.17,1479.62C1156.17,1475.65 1156.17,1470.18 1156.17,1466.51C1156.17,1464.19 1154.58,1462.18 1152.32,1461.65C1148.99,1460.86 1144.2,1459.72 1140.88,1458.93C1138.62,1458.4 1137.03,1456.38 1137.03,1454.07L1137.03,1386.66C1137.03,1386.66 1137.24,1337.28 1090.81,1337.18C1061.56,1337.11 1047.86,1360.2 1047.86,1360.2C1047.86,1360.2 1047.06,1350.31 1046.57,1344.26C1046.36,1341.66 1044.19,1339.66 1041.58,1339.66C1031.43,1339.66 1007.2,1339.66 996.692,1339.66C995.366,1339.66 994.094,1340.19 993.156,1341.12C992.219,1342.06 991.692,1343.34 991.692,1344.66C991.692,1348.48 991.692,1353.67 991.692,1357.22C991.692,1359.58 993.339,1361.62 995.644,1362.11C999.291,1362.89 1004.68,1364.05 1008.32,1364.83C1010.63,1365.32 1012.27,1367.36 1012.27,1369.72C1012.27,1384.98 1012.27,1439 1012.27,1454.28C1012.27,1456.64 1010.62,1458.68 1008.31,1459.17C1005.17,1459.84 1000.79,1460.77 997.642,1461.43Z" style="fill:rgb(254,251,251);"></path> </g> <g id="doubloin_i"> <g id="doubloin_i_dot" transform="matrix(1.86205,0,0,2.34194,1948.17,-1183.61)"> <circle cx="326.024" cy="559.238" r="6.121" style="fill:rgb(254,251,251);"></circle> </g> <g id="doubloin_i_base" transform="matrix(0.622145,0,0,0.775834,1960.35,-878.148)"> <path d="M921.854,1339.71C919.093,1339.71 916.855,1341.94 916.855,1344.71C916.855,1348.47 916.855,1353.55 916.855,1357.04C916.855,1359.38 918.475,1361.4 920.755,1361.92C924.551,1362.78 930.286,1364.07 934.082,1364.92C936.362,1365.44 937.982,1367.46 937.982,1369.8C937.982,1384.99 937.982,1439.01 937.982,1454.2C937.982,1456.54 936.361,1458.57 934.08,1459.08C930.656,1459.85 925.702,1460.96 922.278,1461.74C919.997,1462.25 918.376,1464.28 918.376,1466.61C918.376,1470.27 918.376,1475.71 918.376,1479.65C918.376,1480.98 918.903,1482.25 919.841,1483.19C920.779,1484.13 922.05,1484.65 923.376,1484.65C937.033,1484.65 974.855,1484.65 988.512,1484.65C989.838,1484.65 991.11,1484.13 992.047,1483.19C992.985,1482.25 993.512,1480.98 993.512,1479.65C993.512,1475.6 993.512,1469.97 993.512,1466.21C993.512,1463.87 991.883,1461.84 989.595,1461.33C986.333,1460.61 981.71,1459.58 978.448,1458.86C976.16,1458.35 974.531,1456.32 974.531,1453.98C974.531,1436.18 974.531,1364.36 974.531,1344.69C974.531,1343.37 974.004,1342.1 973.066,1341.16C972.128,1340.22 970.856,1339.69 969.53,1339.69C958.615,1339.7 932.766,1339.7 921.854,1339.71Z" style="fill:rgb(254,251,251);"></path> </g> </g> <g id="doubloin_o" transform="matrix(0.622145,0,0,0.775834,1966.44,-878.123)"> <path d="M340.126,1487.11C283.165,1487 272.342,1437.11 272.342,1412.12C272.342,1387.13 282.075,1337.42 340.126,1337.18C396.984,1336.94 407.754,1387.13 407.754,1412.12C407.754,1437.11 397.789,1487.21 340.126,1487.11ZM340.085,1459.23C368.713,1459.36 371.342,1427.51 371.345,1411.81C371.347,1396.11 368.988,1365.74 340.1,1365.02C313.108,1364.35 308.909,1395.75 308.906,1411.46C308.904,1427.16 312.032,1459.11 340.085,1459.23Z" style="fill:rgb(254,251,251);"></path> </g> <g id="doubloin_l" transform="matrix(0.622145,0,0,0.775834,1962.7,-878.123)"> <path d="M706.467,1479.65C706.467,1480.98 706.994,1482.25 707.932,1483.19C708.869,1484.13 710.141,1484.65 711.467,1484.65C725.19,1484.65 763.325,1484.65 777.048,1484.65C779.809,1484.65 782.048,1482.41 782.048,1479.65C782.048,1475.68 782.048,1470.2 782.048,1466.52C782.048,1464.18 780.425,1462.15 778.142,1461.64C774.82,1460.89 770.074,1459.83 766.752,1459.08C764.469,1458.57 762.846,1456.54 762.846,1454.2C762.846,1430.38 762.846,1307.36 762.846,1280.94C762.846,1279.61 762.319,1278.34 761.381,1277.4C760.444,1276.46 759.172,1275.94 757.846,1275.94C746.919,1275.94 721.015,1275.94 710.088,1275.94C707.327,1275.94 705.088,1278.18 705.088,1280.94C705.088,1284.82 705.088,1290.14 705.088,1293.77C705.088,1296.14 706.75,1298.18 709.069,1298.66C712.827,1299.45 718.433,1300.61 722.191,1301.4C724.51,1301.88 726.172,1303.92 726.172,1306.29L726.172,1454.03C726.172,1456.37 724.559,1458.39 722.285,1458.91C718.831,1459.7 713.808,1460.85 710.354,1461.63C708.08,1462.15 706.467,1464.18 706.467,1466.51C706.467,1470.19 706.467,1475.68 706.467,1479.65Z" style="fill:rgb(254,251,251);"></path> </g> <g id="doubloin_b" transform="matrix(0.622145,0,0,0.775834,1963.95,-878.123)"> <path d="M582.373,1484.25C579.614,1484.25 577.376,1482.02 577.373,1479.26C577.344,1452.9 577.208,1330.3 577.181,1306.21C577.178,1303.82 575.484,1301.77 573.137,1301.31C569.466,1300.6 564.077,1299.55 560.404,1298.83C558.055,1298.37 556.36,1296.31 556.36,1293.92C556.36,1290.25 556.36,1284.86 556.36,1280.94C556.36,1279.61 556.887,1278.34 557.825,1277.4C558.762,1276.46 560.034,1275.94 561.36,1275.94C572.227,1275.94 597.894,1275.94 608.761,1275.94C611.522,1275.94 613.761,1278.18 613.761,1280.94C613.761,1298.36 613.761,1355.35 613.761,1355.35C613.761,1355.35 625.854,1336.24 652.097,1337.18C700.281,1338.89 706.504,1390.09 706.467,1415.09C706.431,1440.09 700.052,1485.44 651.878,1487.16C624.063,1488.16 611.525,1466.66 611.525,1466.66C611.525,1466.66 610.366,1474.75 609.62,1479.96C609.268,1482.42 607.159,1484.25 604.671,1484.25C598.846,1484.25 588.517,1484.25 582.373,1484.25ZM613.767,1443.75C613.767,1443.75 620.434,1458.15 640.136,1458.77C668.56,1459.67 670.205,1428.98 670.191,1413.43C670.176,1397.9 667.34,1365.49 640.048,1365.54C621.391,1365.57 613.767,1381.55 613.767,1381.55L613.767,1443.75Z" style="fill:rgb(254,251,251);"></path> </g> <g id="doubloin_u" transform="matrix(0.622145,0,0,0.775834,1965.19,-878.123)"> <path d="M512.691,1444.05L512.691,1369.89C512.691,1367.59 511.11,1365.58 508.865,1365.04C505.949,1364.33 501.952,1363.37 499.036,1362.66C496.791,1362.12 495.21,1360.11 495.21,1357.8C495.21,1354.14 495.21,1348.67 495.21,1344.71C495.21,1343.38 495.737,1342.11 496.674,1341.17C497.612,1340.23 498.884,1339.71 500.21,1339.71C510.479,1339.71 533.843,1339.71 544.113,1339.71C545.439,1339.71 546.71,1340.23 547.648,1341.17C548.586,1342.11 549.113,1343.38 549.113,1344.71C549.113,1364.44 549.113,1436.7 549.113,1454.28C549.113,1456.57 550.658,1458.56 552.869,1459.13C555.73,1459.86 559.653,1460.87 562.514,1461.6C564.725,1462.17 566.27,1464.16 566.27,1466.45C566.27,1470.06 566.27,1475.47 566.27,1479.41C566.27,1480.73 565.743,1482.01 564.806,1482.94C563.868,1483.88 562.596,1484.41 561.27,1484.41C551.638,1484.41 530.657,1484.41 521.535,1484.41C519.027,1484.41 516.907,1482.55 516.578,1480.06C515.846,1474.53 514.676,1465.69 514.676,1465.69C514.676,1465.69 503.383,1486.6 474.642,1487.15C425.269,1488.1 424.789,1435.49 424.789,1435.49L424.789,1369.76C424.789,1367.5 423.275,1365.52 421.095,1364.93C418.509,1364.23 415.068,1363.3 412.484,1362.6C410.31,1362.01 408.798,1360.04 408.791,1357.79C408.779,1354.21 408.762,1348.83 408.75,1344.9C408.746,1343.57 409.271,1342.29 410.209,1341.35C411.147,1340.41 412.421,1339.88 413.75,1339.88C423.768,1339.88 446.147,1339.88 456.152,1339.88C457.478,1339.88 458.75,1340.41 459.688,1341.35C460.626,1342.28 461.152,1343.56 461.152,1344.88L461.152,1435.63C461.152,1435.63 461.697,1459.41 485.046,1458.61C507.799,1457.82 512.691,1444.05 512.691,1444.05Z" style="fill:rgb(254,251,251);"></path> </g> <g id="doubloin_o1" serif:id="doubloin_o" transform="matrix(0.622145,0,0,0.775834,2277.3,-878.123)"> <path d="M340.126,1487.11C283.165,1487 272.342,1437.11 272.342,1412.12C272.342,1387.13 282.075,1337.42 340.126,1337.18C396.984,1336.94 407.754,1387.13 407.754,1412.12C407.754,1437.11 397.789,1487.21 340.126,1487.11ZM340.085,1459.23C368.713,1459.36 371.342,1427.51 371.345,1411.81C371.347,1396.11 368.988,1365.74 340.1,1365.02C313.108,1364.35 308.909,1395.75 308.906,1411.46C308.904,1427.16 312.032,1459.11 340.085,1459.23Z" style="fill:rgb(254,251,251);"></path> </g> </g> <g id="doubloin_d" transform="matrix(1,0,0,1,1.00749,-0.035038)"> <g transform="matrix(0.622145,0,0,0.775834,1969.61,-878.12)"> <path d="M209.61,1344.95L209.61,1281C209.61,1278.25 207.379,1276.01 204.622,1276C198.643,1275.99 188.681,1275.96 182.69,1275.95C181.362,1275.94 180.087,1276.47 179.147,1277.41C178.206,1278.35 177.678,1279.62 177.678,1280.95C177.677,1312.92 177.67,1487.07 177.67,1487.07C177.67,1487.07 195.573,1487.12 204.552,1487.14C205.88,1487.14 207.154,1486.62 208.095,1485.68C209.035,1484.74 209.564,1483.47 209.564,1482.14C209.573,1456.91 209.61,1344.95 209.61,1344.95Z" style="fill:rgb(252,31,65);"></path> </g> <g transform="matrix(0.622145,0,0,0.775834,1967.68,-878.123)"> <path d="M272.751,1482.1C272.735,1484.85 270.502,1487.07 267.751,1487.07C258.3,1487.07 237.841,1487.07 228.394,1487.07C225.646,1487.07 223.413,1484.86 223.394,1482.11C223.353,1476.24 223.291,1467.27 223.291,1467.27C223.291,1467.27 209.366,1486.24 182.264,1487.07C136.09,1488.49 123.941,1442.39 123.946,1417.37C123.951,1392.35 126.718,1340.7 180.104,1336.91C201.885,1335.36 221.055,1354.96 221.055,1354.96L221.055,1280.95C221.055,1279.62 221.584,1278.35 222.525,1277.41C223.465,1276.47 224.741,1275.95 226.069,1275.95C232.107,1275.97 242.186,1275.99 248.212,1276.01C250.968,1276.02 253.199,1278.25 253.199,1281.01C253.199,1307.41 253.199,1430.51 253.199,1454.28C253.199,1456.6 254.804,1458.62 257.072,1459.15C260.513,1459.94 265.519,1461.1 268.968,1461.9C271.246,1462.43 272.854,1464.46 272.84,1466.8C272.816,1470.99 272.778,1477.58 272.751,1482.1ZM221.47,1444.18L221.331,1381.55C221.331,1381.55 209.441,1365.21 190.279,1365.44C162.333,1365.78 160.278,1395.37 160.432,1410.86C160.585,1426.34 159.283,1459.21 191.735,1459.03C209.039,1458.93 221.47,1444.18 221.47,1444.18Z" style="fill:rgb(252,31,65);"></path> </g> </g> </g> </g> </g> </svg> 