<svg width="807.85972" height="581.58175" xmlns="../../external.html?link=http://www.w3.org/2000/svg">

 <g>
  <title>background</title>
  <rect fill="none" id="canvas_background" height="602" width="802" y="-1" x="-1"/>
 </g>
 <g>
  <title>Layer 1</title>
  <path id="svg_1" fill="#ccc" d="m705.2565,200.07647c-29.23789,-21.85782 -75.03171,-42.52949 -125.63917,-56.71393c-46.07822,-12.91529 -91.02143,-19.15081 -126.56032,-17.55845l-0.185,-4.13293c35.96224,-1.61055 81.37165,4.67732 127.862,17.70792c51.07935,14.31675 97.36929,35.23244 126.99984,57.384l-2.47735,3.31339z"/>
  <path id="svg_2" fill="#a6d5a1" d="m702.22128,216.91256a137.67178,137.67178 0 0 1 -11.91446,56.2089q-0.98672,2.22156 -2.0561,4.40172a138.19449,138.19449 0 0 1 -262.37841,-60.6106q0,-4.79685 0.3268,-9.51915q0.15517,-2.4015 0.40132,-4.774a138.18139,138.18139 0 0 1 275.62085,14.29316l0,-0.00003z"/>
  <path id="svg_3" opacity="0.1" d="m690.30686,273.12146q-0.98672,2.22156 -2.0561,4.40172q-6.05652,0.6578 -12.75013,0.95563c-3.69431,0.16548 -7.49618,0.24823 -11.38077,0.24823c-33.93136,0 -74.7673,-6.26336 -116.48441,-17.95442c-46.49117,-13.03142 -88.55164,-31.25886 -118.43706,-51.32724q-1.52654,-1.02391 -2.99928,-2.05195q0.15516,-2.4015 0.40132,-4.774q2.37669,1.69405 4.90228,3.39228c29.53375,19.82846 71.17228,37.86147 117.24976,50.77708c41.353,11.59174 81.80426,17.80133 115.34672,17.80133q5.75241,0 11.21531,-0.2441q7.95542,-0.35994 14.99236,-1.22456z"/>
  <path id="svg_4" fill="#ccc" d="m664.12042,275.41823c-33.93033,0.00081 -74.76867,-6.26321 -116.48394,-17.95538c-46.4907,-13.03061 -88.553,-31.25872 -118.43869,-51.32658c-30.50945,-20.48664 -44.81593,-40.67331 -40.28428,-56.84141c4.53149,-16.16808 27.24578,-25.97842 63.95844,-27.6237l0.185,4.13293c-17.14436,0.7682 -31.11629,3.31645 -41.52756,7.57379c-10.386,4.24685 -16.65492,9.97779 -18.63248,17.03366c-1.97757,7.05566 0.39956,15.20979 7.06516,24.23616c6.68194,9.04818 17.29424,18.48685 31.54191,28.054c29.53037,19.82933 71.17027,37.86269 117.24916,50.77777c41.35405,11.59075 81.80173,17.80186 115.34706,17.80265q5.74914,0 11.213,-0.24442c17.14453,-0.76841 31.11646,-3.31645 41.528,-7.57379c10.386,-4.24685 16.65492,-9.97758 18.63248,-17.03345c3.55077,-12.66943 -7.18028,-29.13164 -30.21719,-46.354l2.47736,-3.31319c11.85458,8.86254 20.62986,17.59844 26.08223,25.96449c5.84508,8.96919 7.743,17.31987 5.64106,24.81932c-4.53166,16.16808 -27.24616,25.978 -63.95844,27.62351c-3.69422,0.16564 -7.49384,0.24764 -11.37828,0.24764z"/>
  <circle id="svg_5" fill="#f2f2f2" r="1.58335" cy="52.23483" cx="567.70201"/>
  <circle id="svg_6" fill="#ccc" r="2.7239" cy="119.80078" cx="357.64502"/>
  <circle id="svg_7" fill="#ccc" r="5.38101" cy="226.41262" cx="351.83942"/>
  <circle id="svg_8" fill="#ccc" r="3.58631" cy="61.73489" cx="674.84163"/>
  <circle id="svg_9" fill="#ccc" r="5.82278" cy="210.57918" cx="802.03694"/>
  <circle id="svg_10" fill="#ccc" r="2.49824" cy="117.57999" cx="756.50568"/>
  <circle id="svg_11" fill="#ccc" r="3.89733" cy="85.48506" cx="453.17346"/>
  <circle id="svg_12" fill="#ccc" r="2.49824" cy="198.77239" cx="747.76185"/>
  <circle id="svg_13" fill="#ccc" r="3.10939" cy="302.41316" cx="364.50618"/>
  <circle id="svg_14" fill="#ccc" r="3.36729" cy="345.69122" cx="427.31216"/>
  <polygon id="svg_15" fill="#ccc" points="525.2 6.645 518.555 6.645 518.555 0 514.99 0 514.99 6.645 508.342 6.645 508.342 10.213 514.99 10.213 514.99 16.858 518.555 16.858 518.555 10.213 525.2 10.213 525.2 6.645"/>
  <polygon id="svg_16" fill="#ccc" points="679.342 366.201 675.168 366.201 675.168 362.029 672.93 362.029 672.93 366.201 668.758 366.201 668.758 368.44 672.93 368.44 672.93 372.612 675.168 372.612 675.168 368.44 679.342 368.44 679.342 366.201"/>
  <polygon id="svg_17" fill="#ccc" points="775.646 344.844 772.527 344.844 772.527 341.725 770.852 341.725 770.852 344.844 767.733 344.844 767.733 346.519 770.852 346.519 770.852 349.638 772.527 349.638 772.527 346.519 775.646 346.519 775.646 344.844"/>
  <polygon id="svg_39" fill="#ffb8b8" points="188.862 569.715 201.044 568.332 201.509 520.688 183.53 522.729 188.862 569.715"/>
  <path id="svg_40" fill="#2f2e41" transform="rotate(173.52593994140625 687.6026000976562,1252.7396240234375) " d="m1070.24582,1976.25949l38.53073,0a0,0 0 0 1 0,0l0,14.88687a0,0 0 0 1 0,0l-23.64388,0a14.88686,14.88686 0 0 1 -14.88686,-14.88686l0,0a0,0 0 0 1 0.00001,-0.00001z"/>
  <polygon id="svg_41" fill="#ffb8b8" points="63.582 568.954 75.842 568.953 81.674 521.665 63.58 521.666 63.582 568.954"/>
  <path id="svg_42" fill="#2f2e41" transform="rotate(179.99737548828125 356.5449829101563,1304.9841308593748) " d="m613.57047,2029.64361l38.53073,0a0,0 0 0 1 0,0l0,14.88687a0,0 0 0 1 0,0l-23.64387,0a14.88686,14.88686 0 0 1 -14.88686,-14.88686l0,0a0,0 0 0 1 0,-0.00001z"/>
  <path id="svg_43" fill="#2f2e41" d="m151.54355,357.486l7,22.76923l38,82.23077l10,78l-23,1l-14,-72l-48,-52l-42,136l-19,-2s16,-176 38,-194c0,0 36,-17 53,0z"/>
  <circle id="svg_44" fill="#ffb8b8" r="24.56103" cy="234.6789" cx="120.49237"/>
  <path id="svg_45" fill="#ccc" d="m154.04355,361.986s3,-102 -39,-95s-24.5,105.5 -24.5,105.5s9,18 31,-2s32.5,-8.5 32.5,-8.5z"/>
  <polygon id="svg_46" opacity="0.2" points="96.044 309.986 105.927 347.869 120.984 362.927 100.044 355.986 96.044 309.986"/>
  <path id="svg_47" fill="#ffb8b8" d="m154.35386,405.12427a10.05576,10.05576 0 0 1 -5.277,-14.48823l-23.35887,-27.04335l18.41436,-2.39689l19.35886,26.04829a10.11028,10.11028 0 0 1 -9.13733,17.88018l-0.00002,0z"/>
  <path id="svg_48" fill="#ccc" d="m125.91351,287.76177l2.63,51.72423l31,40l-13,10l-42,-42s-15,-51 -4,-66c4.125,-5.625 8.67188,-7.17188 12.74414,-6.90821a13.78031,13.78031 0 0 1 12.62586,13.18398z"/>
  <path id="svg_49" fill="#2f2e41" d="m117.57125,260.4862a1.01358,1.01358 0 0 0 -0.14318,-1.61666a14.28328,14.28328 0 0 1 1.37609,-25.03743c7.22106,-3.44291 17.00605,-0.76444 22.34414,-7.38039a12.40873,12.40873 0 0 0 2.30264,-10.0772c-1.15182,-6.24874 -5.8494,-10.8893 -11.11025,-14.06959a40.429,40.429 0 0 0 -61.08911,39.13442c0.67906,6.01412 2.53479,12.75778 -1.04129,17.64065c-3.14734,4.29745 -9.08815,5.10326 -14.30673,6.17108c-11.19313,2.29031 -21.99165,7.57389 -29.58753,16.1082s-11.64806,20.50823 -9.35788,31.70139s11.47806,21.03009 22.77061,22.76506c9.19165,1.41219 18.68267,-2.4913 25.43252,-8.88821s11.01639,-15.03534 13.70753,-23.93695c3.19415,-10.56543 4.4541,-21.95037 10.22083,-31.36184c5.64312,-9.20972 17.80394,-15.81164 27.33492,-11.01525a1.022,1.022 0 0 0 1.14669,-0.13728z"/>
  <path id="svg_50" fill="#3f3d56" d="m308,581.58176l-307,0a1,1 0 0 1 0,-2l307,0a1,1 0 1 1 0,2z"/>
 </g>
</svg>